<svg width="84" height="83" viewBox="0 0 84 83" fill="none" xmlns="http://www.w3.org/2000/svg">
<g clip-path="url(#clip0_15_149)">
<path d="M60.9151 77.0541C60.0648 77.9044 59.0553 78.579 57.9443 79.0392C56.8333 79.4994 55.6425 79.7363 54.44 79.7363C53.2374 79.7363 52.0467 79.4994 50.9357 79.0392C49.8247 78.579 48.8152 77.9044 47.9649 77.0541L4.2588 33.348C0.683019 29.7722 0.683019 27.2106 4.2588 23.6348L23.683 4.21065C27.2587 0.634862 29.8204 0.634862 33.3962 4.21065L77.1023 47.9167C77.9526 48.767 78.6272 49.7765 79.0874 50.8875C79.5476 51.9985 79.7844 53.1893 79.7844 54.3918C79.7844 55.5944 79.5476 56.7851 79.0874 57.8961C78.6272 59.0071 77.9526 60.0166 77.1023 60.8669L60.9151 77.0541Z" fill="#C1694F"/>
<path d="M38.5791 35.2915L27.3962 24.1086L40.3464 11.1584L37.1071 7.92139L24.1592 20.8716L15.5906 12.303L12.3536 15.5422L20.9222 24.1086L7.97202 37.0588L11.209 40.2957L24.1592 27.3455L35.3421 38.5285L38.5791 35.2915Z" fill="#8A4B38"/>
<path d="M60.6113 80.0355C59.761 80.8859 58.7516 81.5604 57.6406 82.0206C56.5296 82.4808 55.3388 82.7177 54.1362 82.7177C52.9337 82.7177 51.7429 82.4808 50.6319 82.0206C49.5209 81.5604 48.5114 80.8859 47.6611 80.0355L25 57.3744L57.3744 25L80.0355 47.6611C80.8859 48.5114 81.5604 49.5209 82.0206 50.6319C82.4808 51.7429 82.7177 52.9337 82.7177 54.1362C82.7177 55.3388 82.4808 56.5296 82.0206 57.6406C81.5604 58.7516 80.8859 59.761 80.0355 60.6113L60.6113 80.0355Z" fill="#DD2E44"/>
<path d="M29.9784 62.3046L40.676 73.0045L58.8869 26.4643L57.6782 25.2533L54.2352 23.1198L29.9784 62.3046Z" fill="#BE1931"/>
<path d="M52.8227 20.3976L57.6782 25.2531C56.0597 30.1109 38.254 60.8667 35.0147 67.3407C35.0147 67.3407 33.3962 72.1962 29.3489 68.1511L17.2068 56.009C15.6524 54.4546 15.6387 51.1054 17.2068 49.535L46.3464 20.3976C49.5834 17.1607 52.8227 20.3976 52.8227 20.3976Z" fill="#CCD6DD"/>
</g>
<defs>
<clipPath id="clip0_15_149">
<rect width="82.4125" height="82.4125" fill="white" transform="translate(0.618988 0.373779)"/>
</clipPath>
</defs>
</svg>
