<svg width="59" height="77" viewBox="0 0 59 77" fill="none" xmlns="http://www.w3.org/2000/svg">
<path d="M29.6084 0.870497C13.6616 0.870497 0.725822 13.7975 0.725822 29.7502C0.725822 45.694 13.6646 58.6269 29.6084 58.6328C45.5494 58.6269 58.4911 45.694 58.4911 29.7502C58.4911 13.7945 45.5435 0.870497 29.6084 0.870497ZM29.6084 4.18171C43.7186 4.18171 55.1799 15.6312 55.1799 29.7502C55.1799 43.8692 43.7245 55.3157 29.6084 55.3216C22.8269 55.3216 16.3231 52.6276 11.5278 47.8323C6.73248 43.037 4.03851 36.5332 4.03851 29.7516C4.03851 22.9701 6.73248 16.4663 11.5278 11.671C16.3231 6.87568 22.8269 4.18171 29.6084 4.18171ZM22.3414 9.05582C18.8801 9.3943 15.4276 13.8534 17.5586 17.8857C19.56 21.6649 23.7277 21.3 25.0081 25.6119C26.2001 23.9754 28.5577 22.127 32.5517 24.049C35.136 14.4774 29.682 8.35531 22.3414 9.05582ZM45.9791 25.244C41.7113 25.0821 39.8659 28.8613 35.495 27.8194C36.3103 29.6648 36.7666 32.6758 33.1021 35.1776C40.0984 42.1974 48.0688 40.505 51.1328 33.7972C52.5721 30.6332 50.5383 25.4088 45.9791 25.244ZM28.8726 25.9798C27.1361 26.333 25.8381 27.9077 25.8381 29.7502C25.8381 31.8576 27.501 33.5205 29.6084 33.5205C31.7159 33.5205 33.3788 31.8576 33.3788 29.7502C33.3788 27.6428 31.7159 25.9798 29.6084 25.9798C29.3435 25.9798 29.1199 25.9268 28.8726 25.9798ZM23.1685 30.0268C13.591 32.5728 11.0715 40.3902 15.3511 46.3975C17.3702 49.226 22.9507 49.9883 25.376 46.1208C27.6511 42.5065 25.2288 39.0863 28.3193 35.8193C26.3149 35.6044 23.5011 34.4477 23.1685 30.0268ZM23.7218 62.1265C23.7218 68.016 11.9486 69.0256 11.9486 73.8997V76.843H47.2683V73.8997C47.2683 69.0256 35.495 68.016 35.495 62.1265C35.495 62.1265 34.3795 63.0478 29.6084 63.0478C24.8374 63.0478 23.7218 62.1265 23.7218 62.1265Z" fill="#D34A26"/>
</svg>
