<svg width="16" height="16" viewBox="0 0 16 16" fill="none" xmlns="http://www.w3.org/2000/svg">
<path d="M8.00001 3.9C7.18911 3.9 6.39642 4.14046 5.72218 4.59097C5.04794 5.04149 4.52243 5.68182 4.21211 6.431C3.90179 7.18017 3.8206 8.00455 3.9788 8.79987C4.13699 9.59519 4.52748 10.3257 5.10088 10.8991C5.67427 11.4725 6.40482 11.863 7.20014 12.0212C7.99547 12.1794 8.81984 12.0982 9.56902 11.7879C10.3182 11.4776 10.9585 10.9521 11.409 10.2778C11.8596 9.6036 12.1 8.8109 12.1 8C12.1013 7.46121 11.9962 6.92747 11.7906 6.42944C11.585 5.93141 11.2831 5.4789 10.9021 5.09792C10.5211 4.71694 10.0686 4.41498 9.57058 4.20941C9.07255 4.00383 8.53881 3.89868 8.00001 3.9ZM8.00001 10.67C7.47194 10.67 6.95572 10.5134 6.51664 10.22C6.07756 9.92664 5.73534 9.50964 5.53326 9.02176C5.33117 8.53389 5.2783 7.99704 5.38132 7.47911C5.48434 6.96118 5.73863 6.48543 6.11204 6.11202C6.48545 5.73862 6.96119 5.48432 7.47912 5.3813C7.99705 5.27828 8.5339 5.33115 9.02178 5.53324C9.50966 5.73533 9.92665 6.07755 10.22 6.51663C10.5134 6.95571 10.67 7.47192 10.67 8C10.67 8.70813 10.3887 9.38725 9.88799 9.88797C9.38727 10.3887 8.70814 10.67 8.00001 10.67ZM13.23 3.73C13.23 3.92778 13.1714 4.12112 13.0615 4.28557C12.9516 4.45002 12.7954 4.57819 12.6127 4.65388C12.43 4.72957 12.2289 4.74937 12.0349 4.71078C11.8409 4.6722 11.6628 4.57696 11.5229 4.43711C11.3831 4.29725 11.2878 4.11907 11.2492 3.92509C11.2106 3.73111 11.2304 3.53004 11.3061 3.34732C11.3818 3.16459 11.51 3.00841 11.6744 2.89853C11.8389 2.78865 12.0322 2.73 12.23 2.73C12.4952 2.73 12.7496 2.83536 12.9371 3.02289C13.1247 3.21043 13.23 3.46478 13.23 3.73ZM15.94 4.73C15.9702 3.48664 15.5063 2.282 14.65 1.38C14.2058 0.950587 13.6813 0.612974 13.1064 0.386475C12.5316 0.159975 11.9178 0.0490345 11.3 0.0599994C10 -6.10948e-07 6.00001 -6.10948e-07 4.70001 0.0599994C3.45722 0.0330885 2.25379 0.4965 1.35001 1.35C0.493708 2.252 0.0298329 3.45664 0.0600146 4.7C1.46478e-05 6 1.46478e-05 10 0.0600146 11.3C0.0298329 12.5434 0.493708 13.748 1.35001 14.65C2.25379 15.5035 3.45722 15.9669 4.70001 15.94C6.02001 16.02 9.98001 16.02 11.3 15.94C12.5434 15.9702 13.748 15.5063 14.65 14.65C15.5063 13.748 15.9702 12.5434 15.94 11.3C16 10 16 6 15.94 4.7V4.73ZM14.24 12.73C14.1042 13.0739 13.8993 13.3863 13.6378 13.6478C13.3763 13.9093 13.064 14.1142 12.72 14.25C11.1676 14.5639 9.58057 14.6715 8.00001 14.57C6.42277 14.6706 4.83916 14.563 3.29001 14.25C2.94608 14.1142 2.63369 13.9093 2.37223 13.6478C2.11076 13.3863 1.90579 13.0739 1.77001 12.73C1.35001 11.67 1.44001 9.17 1.44001 8.01C1.44001 6.85 1.35001 4.34 1.77001 3.29C1.90196 2.94267 2.10547 2.62696 2.36733 2.36338C2.62919 2.09979 2.94355 1.89422 3.29001 1.76C4.83916 1.44702 6.42277 1.33943 8.00001 1.44C9.58057 1.33855 11.1676 1.44614 12.72 1.76C13.064 1.89577 13.3763 2.10075 13.6378 2.36221C13.8993 2.62368 14.1042 2.93606 14.24 3.28C14.66 4.34 14.56 6.84 14.56 8C14.56 9.16 14.66 11.67 14.24 12.72V12.73Z" fill="white"/>
</svg>
