<svg width="14" height="14" viewBox="0 0 14 14" fill="none" xmlns="http://www.w3.org/2000/svg">
<path fill-rule="evenodd" clip-rule="evenodd" d="M2.91298 2.362C3.17298 2.094 3.31598 1.736 3.31298 1.364C3.29955 1.00292 3.14869 0.660606 2.89125 0.407065C2.6338 0.153525 2.28923 0.00791031 1.92798 0C1.56579 0.00823195 1.22023 0.153628 0.961104 0.406813C0.701978 0.659999 0.54861 1.0021 0.531982 1.364C0.537364 1.73557 0.6852 2.09089 0.944974 2.35662C1.20475 2.62235 1.55663 2.7782 1.92798 2.792C2.29997 2.78326 2.65367 2.62885 2.91298 2.362ZM1.66998 4.63C1.08298 4.617 0.682982 4.608 0.682982 5.326V13.318C0.682982 14.021 1.06498 14.007 1.61498 13.986C1.71498 13.9813 1.81965 13.9787 1.92898 13.978C2.03898 13.9787 2.14365 13.9813 2.24298 13.986C2.79098 14.006 3.16498 14.021 3.16498 13.318V5.327C3.16498 4.609 2.77298 4.617 2.18898 4.631C2.01601 4.63508 1.84296 4.63408 1.66998 4.63ZM5.75398 4.645C5.48798 4.698 5.31698 4.868 5.31698 5.326V13.318C5.31698 14.021 5.68398 14.007 6.23498 13.986C6.33498 13.9813 6.44098 13.9787 6.55298 13.978C6.66498 13.9787 6.77132 13.9813 6.87198 13.986C7.42598 14.006 7.79998 14.021 7.79998 13.318V9.056C7.77866 8.83814 7.80387 8.61824 7.87395 8.41086C7.94404 8.20348 8.05738 8.01336 8.20649 7.8531C8.3556 7.69284 8.53706 7.56609 8.73885 7.48125C8.94064 7.39641 9.15815 7.35543 9.37698 7.361C9.59687 7.34784 9.81701 7.38218 10.0224 7.46171C10.2279 7.54123 10.4138 7.66407 10.5675 7.82186C10.7212 7.97965 10.8391 8.16869 10.9132 8.37613C10.9873 8.58356 11.0159 8.80453 10.997 9.024V13.285C10.997 13.989 11.363 13.975 11.914 13.954C12.014 13.9493 12.12 13.9467 12.232 13.946C12.344 13.9467 12.4503 13.9493 12.551 13.954C13.102 13.974 13.468 13.989 13.468 13.286V7.83C13.4885 7.38205 13.4145 6.93481 13.2507 6.51735C13.087 6.0999 12.8372 5.72158 12.5176 5.40702C12.1981 5.09245 11.8159 4.84867 11.3959 4.69154C10.9759 4.53441 10.5276 4.46744 10.08 4.495C9.6241 4.45314 9.16511 4.5292 8.74709 4.71588C8.32908 4.90256 7.96609 5.19358 7.69298 5.561C7.70398 5.167 7.57598 4.645 7.25698 4.645C7.16498 4.645 7.02398 4.64 6.86398 4.635C6.46398 4.623 5.94398 4.607 5.75398 4.645Z" fill="white"/>
</svg>
