<svg width="51" height="55" viewBox="0 0 51 55" fill="none" xmlns="http://www.w3.org/2000/svg">
<path d="M28.3915 15.7153C29.1562 16.4834 29.7313 17.4191 30.0714 18.4482L31.1707 21.8256C31.2631 22.0854 31.4337 22.3102 31.659 22.4692C31.8843 22.6282 32.1532 22.7135 32.429 22.7135C32.7047 22.7135 32.9737 22.6282 33.199 22.4692C33.4242 22.3102 33.5948 22.0854 33.6872 21.8256L34.7866 18.4482C35.1281 17.4212 35.7047 16.4881 36.4704 15.7232C37.2361 14.9582 38.1697 14.3826 39.1971 14.0421L42.5745 12.945C42.8343 12.8525 43.0591 12.682 43.2181 12.4567C43.3771 12.2314 43.4624 11.9624 43.4624 11.6867C43.4624 11.411 43.3771 11.142 43.2181 10.9167C43.0591 10.6914 42.8343 10.5209 42.5745 10.4284L42.5083 10.4108L39.1287 9.31367C38.1013 8.97315 37.1676 8.39752 36.4019 7.63259C35.6362 6.86766 35.0597 5.93455 34.7181 4.90754L33.621 1.5301C33.5296 1.26932 33.3594 1.04338 33.134 0.883529C32.9086 0.723679 32.6391 0.637817 32.3627 0.637817C32.0864 0.637817 31.8169 0.723679 31.5915 0.883529C31.3661 1.04338 31.1959 1.26932 31.1045 1.5301L30.0052 4.90754L29.9765 4.99143C29.6335 5.99282 29.0665 6.90272 28.3186 7.65175C27.5707 8.40079 26.6617 8.9692 25.6609 9.31367L22.2834 10.4108C22.0236 10.5032 21.7988 10.6738 21.6399 10.8991C21.4809 11.1243 21.3955 11.3933 21.3955 11.669C21.3955 11.9448 21.4809 12.2137 21.6399 12.439C21.7988 12.6643 22.0236 12.8349 22.2834 12.9273L25.6609 14.0244C26.6917 14.3688 27.6255 14.9471 28.3915 15.7153ZM47.4862 23.5055L49.5126 24.1634L49.5546 24.1722C49.7115 24.2266 49.8475 24.3286 49.9437 24.4639C50.04 24.5992 50.0917 24.7611 50.0917 24.9271C50.0917 25.0932 50.04 25.2551 49.9437 25.3904C49.8475 25.5257 49.7115 25.6277 49.5546 25.6821L47.5259 26.3421C46.9108 26.5481 46.3518 26.8939 45.8929 27.3524C45.4341 27.8109 45.0878 28.3695 44.8814 28.9845L44.2213 31.011C44.1659 31.1668 44.0635 31.3017 43.9283 31.3971C43.7932 31.4925 43.6318 31.5437 43.4664 31.5437C43.3009 31.5437 43.1395 31.4925 43.0044 31.3971C42.8692 31.3017 42.7669 31.1668 42.7114 31.011L42.0514 28.9845C41.8479 28.3667 41.5028 27.805 41.0436 27.3443C40.5845 26.8836 40.0239 26.5366 39.4068 26.3311L37.3781 25.6733C37.2213 25.6188 37.0852 25.5169 36.989 25.3816C36.8927 25.2463 36.841 25.0844 36.841 24.9183C36.841 24.7523 36.8927 24.5903 36.989 24.455C37.0852 24.3197 37.2213 24.2178 37.3781 24.1634L39.4068 23.5033C40.0146 23.2922 40.5656 22.9441 41.0173 22.4859C41.469 22.0277 41.8092 21.4717 42.0116 20.861L42.6717 18.8345C42.7271 18.6786 42.8295 18.5438 42.9646 18.4484C43.0998 18.353 43.2612 18.3018 43.4266 18.3018C43.5921 18.3018 43.7534 18.353 43.8886 18.4484C44.0238 18.5438 44.1261 18.6786 44.1816 18.8345L44.8394 20.861C45.0446 21.477 45.3906 22.0366 45.8501 22.4953C46.3096 22.9541 46.8698 23.3014 47.4862 23.5055ZM23.0472 7.26292H24.9412L21.5881 8.36666C20.882 8.60226 20.2705 9.05892 19.8441 9.66907C19.415 10.2634 19.184 10.9779 19.184 11.711C19.184 12.4441 19.415 13.1586 19.8441 13.7529C20.2569 14.3555 20.853 14.8125 21.5439 15.0553L24.9876 16.1591C25.6763 16.4019 26.301 16.7926 26.8198 17.3069C26.9655 17.4497 27.0979 17.6042 27.2171 17.7705C27.5512 18.1918 27.8056 18.6706 27.9677 19.1833L28.0405 19.404H9.80234C9.36324 19.404 8.94213 19.5785 8.63165 19.889C8.32116 20.1994 8.14673 20.6206 8.14673 21.0597C8.14673 21.4987 8.32116 21.9199 8.63165 22.2303C8.94213 22.5408 9.36324 22.7153 9.80234 22.7153H29.131C29.3871 23.3554 29.8175 23.9139 30.3738 24.3267C30.9777 24.7425 31.6936 24.9651 32.4268 24.9651C33.1599 24.9651 33.8758 24.7425 34.4797 24.3267L34.7667 24.0839C34.6819 24.3555 34.638 24.6382 34.6365 24.9227C34.6431 25.5452 34.8351 26.1523 35.1883 26.6666C35.5442 27.1753 36.0554 27.5548 36.6453 27.7483L38.7203 28.4326C39.0037 28.5253 39.261 28.6842 39.4708 28.8962C39.6905 29.1126 39.8567 29.3771 39.9565 29.6688L40.6187 31.6997C40.7512 32.1081 40.9719 32.4811 41.2611 32.7946V39.2625H30.7667C29.4495 39.2625 28.1861 39.7858 27.2547 40.7173C26.3232 41.6487 25.7999 42.912 25.7999 44.2293V54.7237H5.38739C4.0701 54.7237 2.80677 54.2004 1.87531 53.2689C0.943852 52.3375 0.420563 51.0741 0.420563 49.7568V12.2297C0.420563 10.9125 0.943852 9.64913 1.87531 8.71767C2.80677 7.78621 4.0701 7.26292 5.38739 7.26292H8.14673V4.50357C8.14673 4.06448 8.32116 3.64337 8.63165 3.33288C8.94213 3.02239 9.36324 2.84797 9.80234 2.84797C10.2414 2.84797 10.6625 3.02239 10.973 3.33288C11.2835 3.64337 11.4579 4.06448 11.4579 4.50357V7.26292H19.736V4.50357C19.736 4.06448 19.9104 3.64337 20.2209 3.33288C20.5314 3.02239 20.9525 2.84797 21.3916 2.84797C21.8307 2.84797 22.2518 3.02239 22.5623 3.33288C22.8728 3.64337 23.0472 4.06448 23.0472 4.50357V7.26292ZM8.14673 30.9933C8.14673 31.9072 8.88844 32.6489 9.80234 32.6489H31.8771C32.3162 32.6489 32.7373 32.4745 33.0478 32.164C33.3583 31.8535 33.5327 31.4324 33.5327 30.9933C33.5327 30.5542 33.3583 30.1331 33.0478 29.8226C32.7373 29.5121 32.3162 29.3377 31.8771 29.3377H9.80234C9.36324 29.3377 8.94213 29.5121 8.63165 29.8226C8.32116 30.1331 8.14673 30.5542 8.14673 30.9933ZM8.14673 40.9269C8.14673 41.8408 8.88844 42.5825 9.80234 42.5825H19.736C20.1751 42.5825 20.5962 42.4081 20.9067 42.0976C21.2172 41.7871 21.3916 41.366 21.3916 40.9269C21.3916 40.4878 21.2172 40.0667 20.9067 39.7562C20.5962 39.4458 20.1751 39.2713 19.736 39.2713H9.80234C9.36324 39.2713 8.94213 39.4458 8.63165 39.7562C8.32116 40.0667 8.14673 40.4878 8.14673 40.9269ZM29.1089 53.7524L40.2898 42.5737H30.7645C30.3254 42.5737 29.9043 42.7481 29.5938 43.0586C29.2834 43.3691 29.1089 43.7902 29.1089 44.2293V53.7524Z" fill="#D34A26"/>
</svg>
