<svg width="56" height="62" viewBox="0 0 56 62" fill="none" xmlns="http://www.w3.org/2000/svg">
<path fill-rule="evenodd" clip-rule="evenodd" d="M17.1375 14.0682V11.0807C17.1375 8.15342 18.3004 5.34602 20.3703 3.27611C22.4402 1.2062 25.2476 0.043335 28.1749 0.043335C31.1022 0.043335 33.9096 1.2062 35.9795 3.27611C38.0494 5.34602 39.2123 8.15342 39.2123 11.0807V14.0682C43.0003 14.183 45.3196 14.5891 47.0885 16.0578C49.5403 18.0946 50.1878 21.5383 51.4799 28.4285L53.6874 40.2017C55.5034 49.8911 56.41 54.7358 53.764 57.9263C51.115 61.1169 46.185 61.1169 36.3278 61.1169H20.0219C10.1619 61.1169 5.23479 61.1169 2.58582 57.9263C-0.0631558 54.7358 0.849268 49.8911 2.66234 40.2017L4.86982 28.4285C6.16487 21.5412 6.80945 18.0946 9.26122 16.0578C11.0301 14.5891 13.3495 14.183 17.1375 14.0682ZM21.5525 11.0807C21.5525 9.32434 22.2502 7.6399 23.4921 6.39795C24.7341 5.15601 26.4185 4.45829 28.1749 4.45829C29.9313 4.45829 31.6157 5.15601 32.8577 6.39795C34.0996 7.6399 34.7973 9.32434 34.7973 11.0807V14.024H21.5525V11.0807ZM39.1828 28.3785C39.1353 28.0925 39.0319 27.8186 38.8785 27.5726C38.7251 27.3265 38.5248 27.1131 38.2889 26.9444C38.053 26.7758 37.7863 26.6553 37.5038 26.5897C37.2214 26.5242 36.9288 26.5149 36.6428 26.5625C36.3567 26.61 36.0829 26.7134 35.8368 26.8668C35.5908 27.0202 35.3773 27.2205 35.2087 27.4564C35.0401 27.6923 34.9195 27.9591 34.854 28.2415C34.7885 28.5239 34.7792 28.8165 34.8267 29.1026L37.7701 46.7624C37.8176 47.0484 37.921 47.3223 38.0744 47.5683C38.2278 47.8144 38.4281 48.0278 38.664 48.1964C38.8998 48.3651 39.1666 48.4856 39.4491 48.5511C39.7315 48.6167 40.0241 48.6259 40.3101 48.5784C40.5961 48.5308 40.87 48.4274 41.1161 48.2741C41.3621 48.1207 41.5756 47.9203 41.7442 47.6845C41.9128 47.4486 42.0334 47.1818 42.0989 46.8994C42.1644 46.6169 42.1737 46.3243 42.1261 46.0383L39.1828 28.3785ZM19.707 26.5625C19.421 26.5149 19.1284 26.5241 18.8459 26.5896C18.5634 26.6551 18.2966 26.7756 18.0608 26.9443C17.8249 27.1129 17.6245 27.3264 17.4712 27.5725C17.3178 27.8186 17.2144 28.0925 17.1669 28.3785L14.2236 46.0383C14.1761 46.3243 14.1854 46.6169 14.2509 46.8994C14.3164 47.1818 14.4369 47.4486 14.6056 47.6845C14.7742 47.9203 14.9876 48.1207 15.2337 48.2741C15.4798 48.4274 15.7536 48.5308 16.0396 48.5784C16.3257 48.6259 16.6183 48.6167 16.9007 48.5511C17.1832 48.4856 17.4499 48.3651 17.6858 48.1964C17.9217 48.0278 18.122 47.8144 18.2754 47.5683C18.4288 47.3223 18.5322 47.0484 18.5797 46.7624L21.523 29.1026C21.5706 28.8165 21.5614 28.5239 21.4959 28.2414C21.4304 27.959 21.3099 27.6922 21.1412 27.4563C20.9726 27.2204 20.7591 27.0201 20.513 26.8667C20.2669 26.7134 19.9931 26.61 19.707 26.5625Z" fill="#D34A26"/>
</svg>
